<?xml version="1.0" encoding="iso-8859-1"?>
<!-- Generator: Adobe Illustrator 17.1.0, SVG Export Plug-In . SVG Version: 6.00 Build 0)  -->
<!DOCTYPE svg PUBLIC "-//W3C//DTD SVG 1.1//EN" "http://www.w3.org/Graphics/SVG/1.1/DTD/svg11.dtd">
<svg version="1.1" id="Capa_1" xmlns="http://www.w3.org/2000/svg" xmlns:xlink="http://www.w3.org/1999/xlink" x="0px" y="0px"
	 viewBox="0 0 323.331 323.331" style="enable-background:new 0 0 323.331 323.331;" xml:space="preserve">
<g>
	<path d="M177.736,214.037c-13.255,0-25.407,5.768-36.72,11.676c-1.021,0.534-2.049,0.793-3.141,0.794
		c-6.717,0.001-19.534-9.204-42.449-53.066c-19.574-37.466-24.669-58.989-15.143-63.968c25.819-13.485,38.133-31.258,19.777-78.124
		C91.807,10.254,80.429,0,65.277,0C53.428,0,41.711,6.502,31.373,12.238c-2.268,1.258-4.41,2.447-6.485,3.531
		C10.237,23.422,2.613,47.75,4.494,80.848c2.064,36.315,15.169,79.049,36.902,120.651c41.853,80.094,97.666,121.832,131.168,121.832
		c0.002,0,0.003,0,0.005,0c4.276,0,8.169-0.526,11.57-1.912c14.796-6.029,42.337-17.163,48.894-38.583
		c3.517-11.487,0.632-24.245-8.575-38.006C210.567,224.08,195.284,214.037,177.736,214.037z"/>
	<path d="M315.608,132.788l-69.274-48.534c-1.413-0.99-2.738-1.514-4.263-1.514c-3.308,0-6.428,2.512-6.428,7.313v28.278h-88.681
		c-4.963,0-9.319,3.794-9.319,8.756v24.172c0,4.962,4.356,9.072,9.319,9.072h88.681v27.968c0,4.801,3.122,7.313,6.43,7.313
		c1.524,0,2.965-0.523,4.377-1.513l69.214-48.531c2.213-1.55,3.454-3.88,3.454-6.39
		C319.119,136.667,317.821,134.338,315.608,132.788z"/>
</g>
<g>
</g>
<g>
</g>
<g>
</g>
<g>
</g>
<g>
</g>
<g>
</g>
<g>
</g>
<g>
</g>
<g>
</g>
<g>
</g>
<g>
</g>
<g>
</g>
<g>
</g>
<g>
</g>
<g>
</g>
</svg>
